<svg xmlns="http://www.w3.org/2000/svg" xmlns:xlink="http://www.w3.org/1999/xlink" width="559" zoomAndPan="magnify" viewBox="0 0 419.25 297.749991" height="397" preserveAspectRatio="xMidYMid meet" version="1.2"><defs><clipPath id="61e58f5013"><path d="M 0 0.140625 L 418.5 0.140625 L 418.5 297.359375 L 0 297.359375 Z M 0 0.140625 "/></clipPath><clipPath id="2a0cfeb245"><path d="M 0 0.140625 L 418.222656 0.140625 L 418.222656 297.164062 L 0 297.164062 Z M 0 0.140625 "/></clipPath><clipPath id="1c22e488e4"><path d="M 194.339844 78.75 L 219.617188 78.75 L 219.617188 156.472656 L 194.339844 156.472656 Z M 194.339844 78.75 "/></clipPath><clipPath id="6f883df9a8"><path d="M 192 60 L 227 60 L 227 88.730469 L 192 88.730469 Z M 192 60 "/></clipPath><clipPath id="9d2d5499af"><path d="M 188.265625 57 L 198 57 L 198 71 L 188.265625 71 Z M 188.265625 57 "/></clipPath><clipPath id="02372cb421"><path d="M 220 57 L 229.96875 57 L 229.96875 71 L 220 71 Z M 220 57 "/></clipPath><clipPath id="153762ca7d"><path d="M 156.320312 88.726562 L 262.480469 88.726562 L 262.480469 170.242188 L 156.320312 170.242188 Z M 156.320312 88.726562 "/></clipPath></defs><g id="8490e8676a"><g clip-rule="nonzero" clip-path="url(#61e58f5013)"><path style=" stroke:none;fill-rule:nonzero;fill:#ffffff;fill-opacity:1;" d="M 0 0.140625 L 418.5 0.140625 L 418.5 297.359375 L 0 297.359375 Z M 0 0.140625 "/></g><g clip-rule="nonzero" clip-path="url(#2a0cfeb245)"><path style=" stroke:none;fill-rule:nonzero;fill:#0f175f;fill-opacity:1;" d="M 0 0.140625 L 418.222656 0.140625 L 418.222656 297.164062 L 0 297.164062 Z M 0 0.140625 "/></g><g clip-rule="nonzero" clip-path="url(#1c22e488e4)"><path style=" stroke:none;fill-rule:evenodd;fill:#d6c2a7;fill-opacity:1;" d="M 211.019531 106.605469 C 210.675781 106.605469 210.675781 106.261719 210.675781 106.261719 C 210.675781 106.261719 211.019531 88.550781 211.019531 88.035156 C 211.019531 87.519531 211.363281 87.347656 211.707031 87.003906 C 212.910156 86.144531 213.769531 84.765625 213.769531 83.21875 C 213.769531 80.640625 211.707031 78.75 209.300781 78.75 C 206.71875 78.75 204.828125 80.8125 204.828125 83.21875 C 204.828125 84.9375 205.6875 86.316406 207.0625 87.175781 C 207.40625 87.347656 207.578125 87.691406 207.75 88.035156 C 207.75 88.378906 208.097656 105.574219 208.097656 105.574219 C 208.097656 105.746094 207.925781 105.917969 207.578125 105.917969 C 202.59375 104.886719 198.984375 103.164062 198.464844 101.960938 C 198.121094 100.929688 198.640625 99.554688 200.015625 99.210938 C 200.1875 99.210938 200.53125 99.210938 200.53125 99.210938 C 201.390625 99.554688 202.765625 99.554688 203.625 99.726562 C 204.65625 99.898438 205.171875 99.898438 205.34375 99.726562 C 205.515625 99.554688 206.03125 99.039062 205.859375 98.695312 C 205.515625 98.523438 204.828125 97.492188 203.453125 96.460938 C 202.25 95.429688 201.5625 95.429688 199.671875 95.945312 C 195.027344 96.632812 194.339844 100.242188 195.027344 102.304688 C 196.230469 106.433594 204.140625 108.152344 208.097656 108.839844 C 213.425781 109.699219 216.175781 110.558594 216.175781 111.589844 C 216.175781 112.277344 214.800781 113.136719 212.050781 114.171875 C 211.878906 114.171875 211.707031 114.34375 211.707031 114.6875 C 211.707031 114.859375 211.707031 115.71875 211.707031 116.234375 C 211.707031 116.40625 211.707031 116.578125 212.050781 116.578125 C 216.175781 115.203125 219.617188 113.652344 219.617188 111.761719 C 219.445312 109.527344 215.660156 107.636719 211.019531 106.605469 Z M 210.332031 138.757812 C 210.160156 138.757812 209.988281 138.585938 209.988281 138.414062 C 209.988281 136.695312 210.160156 127.925781 210.160156 127.582031 C 210.160156 127.238281 209.988281 127.238281 209.816406 127.066406 C 209.300781 126.894531 208.957031 126.894531 208.613281 126.722656 C 208.441406 126.722656 208.269531 126.722656 208.269531 126.894531 C 208.269531 127.066406 208.269531 128.097656 208.269531 128.097656 C 208.269531 128.097656 208.269531 130.675781 208.269531 131.191406 C 208.269531 131.535156 208.097656 131.707031 207.925781 131.707031 C 205.34375 132.566406 202.765625 133.601562 202.9375 136.179688 C 203.109375 138.070312 205.171875 139.273438 208.613281 140.132812 C 211.191406 140.820312 214.628906 143.402344 211.191406 148.558594 C 210.847656 149.074219 211.535156 148.558594 212.394531 147.355469 C 214.113281 145.121094 215.488281 140.476562 210.332031 138.757812 Z M 208.441406 138.242188 C 206.546875 137.726562 205.34375 136.867188 205.171875 136.007812 C 205.171875 135.320312 205.515625 134.460938 208.269531 133.601562 C 208.613281 133.429688 208.613281 133.601562 208.613281 133.773438 L 208.613281 135.664062 C 208.613281 135.664062 208.613281 137.554688 208.613281 137.898438 C 208.785156 138.242188 208.441406 138.242188 208.441406 138.242188 Z M 210.675781 124.488281 C 213.082031 125.175781 216.175781 126.378906 216.519531 128.269531 C 216.519531 128.441406 216.519531 128.441406 216.519531 128.613281 C 216.519531 130.675781 213.941406 131.878906 211.535156 132.742188 C 211.535156 132.742188 211.363281 132.742188 211.363281 132.566406 C 211.363281 132.222656 211.363281 131.535156 211.363281 131.363281 C 211.363281 131.019531 211.535156 131.019531 211.707031 131.019531 C 213.597656 130.332031 214.800781 129.644531 214.800781 128.785156 C 214.800781 127.410156 208.269531 126.035156 207.925781 125.863281 C 204.484375 124.832031 200.015625 124.144531 199.84375 121.5625 C 199.5 118.46875 205.859375 116.578125 208.097656 115.890625 C 208.269531 115.890625 208.269531 115.71875 208.269531 115.546875 L 208.269531 110.558594 C 208.269531 110.386719 208.441406 110.214844 208.613281 110.386719 C 209.300781 110.558594 209.816406 110.558594 210.503906 110.730469 C 210.675781 110.730469 210.847656 110.902344 210.847656 111.074219 C 210.847656 111.246094 210.847656 112.449219 210.847656 112.449219 L 210.503906 120.359375 L 210.503906 124.144531 C 210.332031 124.316406 210.503906 124.316406 210.675781 124.488281 Z M 208.097656 123.800781 C 208.097656 123.800781 208.269531 123.800781 208.269531 123.628906 C 208.269531 122.59375 208.097656 118.125 208.097656 117.953125 C 208.097656 117.78125 207.925781 117.78125 207.925781 117.78125 C 204.65625 118.8125 201.5625 120.015625 201.5625 121.046875 C 201.734375 122.25 205.34375 122.9375 208.097656 123.800781 Z M 209.816406 141.335938 C 209.816406 141.335938 209.988281 141.507812 209.988281 141.679688 C 209.988281 141.851562 209.644531 155.78125 209.644531 155.78125 C 209.644531 155.953125 209.472656 156.125 209.300781 156.125 C 209.128906 156.125 208.957031 155.953125 208.957031 155.78125 C 208.957031 155.78125 208.613281 141.507812 208.613281 141.335938 C 208.613281 141.164062 208.785156 141.164062 208.785156 141.164062 C 209.300781 141.164062 209.472656 141.335938 209.816406 141.335938 Z M 201.734375 96.460938 C 202.078125 96.460938 202.25 96.632812 202.25 96.976562 C 202.25 97.320312 202.078125 97.492188 201.734375 97.492188 C 201.390625 97.492188 201.21875 97.320312 201.21875 96.976562 C 201.21875 96.804688 201.390625 96.460938 201.734375 96.460938 Z M 201.734375 96.460938 "/></g><g clip-rule="nonzero" clip-path="url(#6f883df9a8)"><path style=" stroke:none;fill-rule:nonzero;fill:#d6c2a7;fill-opacity:1;" d="M 220.191406 70.605469 C 219.792969 70.320312 219.390625 70.050781 218.976562 69.800781 C 216.507812 68.308594 214.59375 66.199219 213.1875 63.8125 C 212.082031 61.929688 210.800781 60.851562 209.433594 60.851562 C 207.960938 60.851562 206.589844 62.101562 205.425781 64.261719 C 204.195312 66.546875 202.242188 68.183594 200.074219 69.539062 C 196.832031 71.566406 193.691406 74.851562 192.671875 78.628906 C 191.070312 84.566406 196.628906 88.375 202.023438 88.007812 C 204.410156 87.851562 206.953125 87.058594 209.308594 85.652344 C 211.742188 87.117188 214.382812 87.90625 216.839844 88.019531 C 220.589844 88.191406 224.902344 86.164062 226.011719 82.34375 C 227.335938 77.800781 223.65625 73.097656 220.191406 70.605469 "/></g><g clip-rule="nonzero" clip-path="url(#9d2d5499af)"><path style=" stroke:none;fill-rule:nonzero;fill:#d6c2a7;fill-opacity:1;" d="M 197.441406 64.375 C 197.441406 67.515625 195.386719 70.0625 192.851562 70.0625 C 190.320312 70.0625 188.265625 67.515625 188.265625 64.375 C 188.265625 61.230469 189.066406 57.269531 191.601562 57.269531 C 194.132812 57.269531 197.441406 61.230469 197.441406 64.375 "/></g><path style=" stroke:none;fill-rule:nonzero;fill:#d6c2a7;fill-opacity:1;" d="M 190.382812 59.050781 C 189.402344 56.050781 190.316406 52.972656 190.832031 52.777344 C 191.34375 52.585938 191.414062 57.078125 192.851562 58.683594 C 194.296875 60.285156 190.382812 59.050781 190.382812 59.050781 "/><path style=" stroke:none;fill-rule:nonzero;fill:#d6c2a7;fill-opacity:1;" d="M 207.355469 55.726562 C 207.355469 58.871094 205.300781 61.417969 202.769531 61.417969 C 200.234375 61.417969 198.179688 58.871094 198.179688 55.726562 C 198.179688 52.585938 198.980469 48.625 201.515625 48.625 C 204.046875 48.625 207.355469 52.585938 207.355469 55.726562 "/><path style=" stroke:none;fill-rule:nonzero;fill:#d6c2a7;fill-opacity:1;" d="M 200.296875 50.40625 C 199.316406 47.40625 200.230469 44.328125 200.746094 44.132812 C 201.257812 43.941406 201.328125 48.433594 202.769531 50.039062 C 204.210938 51.640625 200.296875 50.40625 200.296875 50.40625 "/><g clip-rule="nonzero" clip-path="url(#02372cb421)"><path style=" stroke:none;fill-rule:nonzero;fill:#d6c2a7;fill-opacity:1;" d="M 220.792969 64.375 C 220.792969 67.515625 222.847656 70.0625 225.378906 70.0625 C 227.914062 70.0625 229.96875 67.515625 229.96875 64.375 C 229.96875 61.230469 229.167969 57.269531 226.632812 57.269531 C 224.101562 57.269531 220.792969 61.230469 220.792969 64.375 "/></g><path style=" stroke:none;fill-rule:nonzero;fill:#d6c2a7;fill-opacity:1;" d="M 227.851562 59.050781 C 228.832031 56.050781 227.917969 52.972656 227.402344 52.777344 C 226.890625 52.585938 226.820312 57.078125 225.378906 58.683594 C 223.9375 60.285156 227.851562 59.050781 227.851562 59.050781 "/><path style=" stroke:none;fill-rule:nonzero;fill:#d6c2a7;fill-opacity:1;" d="M 210.878906 55.726562 C 210.878906 58.871094 212.933594 61.417969 215.464844 61.417969 C 218 61.417969 220.050781 58.871094 220.050781 55.726562 C 220.050781 52.585938 219.253906 48.625 216.71875 48.625 C 214.1875 48.625 210.878906 52.585938 210.878906 55.726562 "/><path style=" stroke:none;fill-rule:nonzero;fill:#d6c2a7;fill-opacity:1;" d="M 217.9375 50.40625 C 218.917969 47.40625 218.003906 44.328125 217.488281 44.132812 C 216.976562 43.941406 216.90625 48.433594 215.464844 50.039062 C 214.023438 51.640625 217.9375 50.40625 217.9375 50.40625 "/><g clip-rule="nonzero" clip-path="url(#153762ca7d)"><path style=" stroke:none;fill-rule:nonzero;fill:#d6c2a7;fill-opacity:1;" d="M 258.113281 107.386719 C 258.113281 134.148438 236.488281 156.011719 209.488281 156.011719 C 182.847656 155.890625 160.984375 134.386719 160.984375 107.386719 C 160.984375 100.695312 162.296875 94.722656 164.445312 88.746094 C 159.308594 97.230469 156.324219 106.789062 156.324219 117.300781 C 156.324219 146.691406 180.097656 170.226562 209.25 170.226562 C 238.640625 170.226562 262.175781 146.332031 262.175781 117.300781 C 262.175781 106.789062 259.070312 96.992188 254.054688 88.746094 C 256.921875 94.839844 258.113281 101.171875 258.113281 107.386719 Z M 258.113281 107.386719 "/></g><g style="fill:#d6c2a7;fill-opacity:1;"><g transform="translate(123.334845, 220.780644)"><path style="stroke:none" d="M 11.90625 0.546875 C 10.351562 0.546875 9 0.34375 7.84375 -0.0625 C 6.6875 -0.46875 5.695312 -1.070312 4.875 -1.875 C 3.957031 -2.800781 3.304688 -3.90625 2.921875 -5.1875 C 2.546875 -6.46875 2.359375 -8.050781 2.359375 -9.9375 L 2.359375 -26.421875 L 5.875 -26.421875 L 5.875 -9.9375 C 5.875 -8.71875 5.945312 -7.691406 6.09375 -6.859375 C 6.25 -6.023438 6.554688 -5.273438 7.015625 -4.609375 C 7.484375 -3.898438 8.125 -3.363281 8.9375 -3 C 9.75 -2.632812 10.738281 -2.453125 11.90625 -2.453125 C 13.007812 -2.453125 13.984375 -2.632812 14.828125 -3 C 15.679688 -3.363281 16.347656 -3.898438 16.828125 -4.609375 C 17.265625 -5.285156 17.5625 -6.03125 17.71875 -6.84375 C 17.875 -7.664062 17.953125 -8.664062 17.953125 -9.84375 L 17.953125 -26.421875 L 21.46875 -26.421875 L 21.46875 -9.9375 C 21.46875 -8.101562 21.28125 -6.53125 20.90625 -5.21875 C 20.539062 -3.90625 19.890625 -2.789062 18.953125 -1.875 C 18.109375 -1.0625 17.128906 -0.453125 16.015625 -0.046875 C 14.898438 0.347656 13.53125 0.546875 11.90625 0.546875 Z M 11.90625 0.546875 "/></g></g><g style="fill:#d6c2a7;fill-opacity:1;"><g transform="translate(147.163984, 220.780644)"><path style="stroke:none" d="M 18 0 L 2.671875 0 L 2.671875 -26.421875 L 6.1875 -26.421875 L 6.1875 -3.125 L 18 -3.125 Z M 18 0 "/></g></g><g style="fill:#d6c2a7;fill-opacity:1;"><g transform="translate(165.244321, 220.780644)"><path style="stroke:none" d="M 8.859375 0 L 8.859375 -23.296875 L -0.015625 -23.296875 L -0.015625 -26.421875 L 21.234375 -26.421875 L 21.234375 -23.296875 L 12.375 -23.296875 L 12.375 0 Z M 8.859375 0 "/></g></g><g style="fill:#d6c2a7;fill-opacity:1;"><g transform="translate(186.465207, 220.780644)"><path style="stroke:none" d="M 23.140625 0 L 18.578125 0 L 10.203125 -10.5 L 6.1875 -10.5 L 6.1875 0 L 2.671875 0 L 2.671875 -26.421875 L 9.5 -26.421875 C 11.007812 -26.421875 12.273438 -26.335938 13.296875 -26.171875 C 14.316406 -26.003906 15.289062 -25.617188 16.21875 -25.015625 C 17.144531 -24.429688 17.875 -23.671875 18.40625 -22.734375 C 18.945312 -21.796875 19.21875 -20.632812 19.21875 -19.25 C 19.21875 -17.3125 18.722656 -15.691406 17.734375 -14.390625 C 16.753906 -13.085938 15.421875 -12.125 13.734375 -11.5 Z M 15.546875 -18.984375 C 15.546875 -19.753906 15.410156 -20.4375 15.140625 -21.03125 C 14.867188 -21.632812 14.445312 -22.125 13.875 -22.5 C 13.375 -22.832031 12.789062 -23.066406 12.125 -23.203125 C 11.46875 -23.335938 10.648438 -23.40625 9.671875 -23.40625 L 6.1875 -23.40625 L 6.1875 -13.4375 L 9.28125 -13.4375 C 10.289062 -13.4375 11.195312 -13.523438 12 -13.703125 C 12.800781 -13.878906 13.488281 -14.242188 14.0625 -14.796875 C 14.5625 -15.296875 14.929688 -15.890625 15.171875 -16.578125 C 15.421875 -17.265625 15.546875 -18.066406 15.546875 -18.984375 Z M 15.546875 -18.984375 "/></g></g><g style="fill:#d6c2a7;fill-opacity:1;"><g transform="translate(209.016835, 220.780644)"><path style="stroke:none" d="M -0.171875 0 L 8.734375 -26.421875 L 13.0625 -26.421875 L 21.96875 0 L 18.265625 0 L 15.859375 -7.375 L 5.765625 -7.375 L 3.375 0 Z M 14.890625 -10.375 L 10.8125 -22.84375 L 6.75 -10.375 Z M 14.890625 -10.375 "/></g></g><g style="fill:#d6c2a7;fill-opacity:1;"><g transform="translate(230.815679, 220.780644)"><path style="stroke:none" d=""/></g></g><g style="fill:#d6c2a7;fill-opacity:1;"><g transform="translate(242.171337, 220.780644)"><path style="stroke:none" d=""/></g></g><g style="fill:#d6c2a7;fill-opacity:1;"><g transform="translate(253.530418, 220.780644)"><path style="stroke:none" d="M 2.671875 0 L 2.671875 -26.421875 L 19.203125 -26.421875 L 19.203125 -23.296875 L 6.1875 -23.296875 L 6.1875 -16.0625 L 18.3125 -16.0625 L 18.3125 -12.9375 L 6.1875 -12.9375 L 6.1875 -3.125 L 19.203125 -3.125 L 19.203125 0 Z M 2.671875 0 "/></g></g><g style="fill:#d6c2a7;fill-opacity:1;"><g transform="translate(273.917373, 220.780644)"><path style="stroke:none" d="M 8.859375 0 L 8.859375 -23.296875 L -0.015625 -23.296875 L -0.015625 -26.421875 L 21.234375 -26.421875 L 21.234375 -23.296875 L 12.375 -23.296875 L 12.375 0 Z M 8.859375 0 "/></g></g><g style="fill:#ffffff;fill-opacity:1;"><g transform="translate(141.353683, 248.643683)"><path style="stroke:none" d="M 7.21875 0 L 6.0625 -3 L 2.265625 -3 L 1.109375 0 L 0 0 L 3.703125 -9.484375 L 4.6875 -9.484375 L 8.359375 0 Z M 5.71875 -3.96875 L 4.625 -6.953125 C 4.59375 -7.023438 4.546875 -7.148438 4.484375 -7.328125 C 4.429688 -7.503906 4.375 -7.6875 4.3125 -7.875 C 4.25 -8.070312 4.203125 -8.226562 4.171875 -8.34375 C 4.128906 -8.164062 4.082031 -7.988281 4.03125 -7.8125 C 3.976562 -7.632812 3.925781 -7.472656 3.875 -7.328125 C 3.832031 -7.179688 3.796875 -7.054688 3.765625 -6.953125 L 2.640625 -3.96875 Z M 5.71875 -3.96875 "/></g></g><g style="fill:#ffffff;fill-opacity:1;"><g transform="translate(151.06529, 248.643683)"><path style="stroke:none" d="M 8.796875 -4.8125 C 8.796875 -3.75 8.597656 -2.859375 8.203125 -2.140625 C 7.816406 -1.429688 7.253906 -0.894531 6.515625 -0.53125 C 5.785156 -0.175781 4.898438 0 3.859375 0 L 1.296875 0 L 1.296875 -9.453125 L 4.140625 -9.453125 C 5.097656 -9.453125 5.921875 -9.273438 6.609375 -8.921875 C 7.304688 -8.566406 7.84375 -8.046875 8.21875 -7.359375 C 8.601562 -6.671875 8.796875 -5.820312 8.796875 -4.8125 Z M 7.640625 -4.78125 C 7.640625 -5.625 7.5 -6.320312 7.21875 -6.875 C 6.9375 -7.425781 6.519531 -7.835938 5.96875 -8.109375 C 5.425781 -8.378906 4.757812 -8.515625 3.96875 -8.515625 L 2.390625 -8.515625 L 2.390625 -0.9375 L 3.734375 -0.9375 C 5.035156 -0.9375 6.007812 -1.257812 6.65625 -1.90625 C 7.3125 -2.550781 7.640625 -3.507812 7.640625 -4.78125 Z M 7.640625 -4.78125 "/></g></g><g style="fill:#ffffff;fill-opacity:1;"><g transform="translate(162.010227, 248.643683)"><path style="stroke:none" d="M 8.796875 -4.8125 C 8.796875 -3.75 8.597656 -2.859375 8.203125 -2.140625 C 7.816406 -1.429688 7.253906 -0.894531 6.515625 -0.53125 C 5.785156 -0.175781 4.898438 0 3.859375 0 L 1.296875 0 L 1.296875 -9.453125 L 4.140625 -9.453125 C 5.097656 -9.453125 5.921875 -9.273438 6.609375 -8.921875 C 7.304688 -8.566406 7.84375 -8.046875 8.21875 -7.359375 C 8.601562 -6.671875 8.796875 -5.820312 8.796875 -4.8125 Z M 7.640625 -4.78125 C 7.640625 -5.625 7.5 -6.320312 7.21875 -6.875 C 6.9375 -7.425781 6.519531 -7.835938 5.96875 -8.109375 C 5.425781 -8.378906 4.757812 -8.515625 3.96875 -8.515625 L 2.390625 -8.515625 L 2.390625 -0.9375 L 3.734375 -0.9375 C 5.035156 -0.9375 6.007812 -1.257812 6.65625 -1.90625 C 7.3125 -2.550781 7.640625 -3.507812 7.640625 -4.78125 Z M 7.640625 -4.78125 "/></g></g><g style="fill:#ffffff;fill-opacity:1;"><g transform="translate(172.955164, 248.643683)"><path style="stroke:none" d=""/></g></g><g style="fill:#ffffff;fill-opacity:1;"><g transform="translate(177.73991, 248.643683)"><path style="stroke:none" d="M 8.453125 0 L 7.359375 0 L 7.359375 -4.453125 L 2.390625 -4.453125 L 2.390625 0 L 1.296875 0 L 1.296875 -9.453125 L 2.390625 -9.453125 L 2.390625 -5.421875 L 7.359375 -5.421875 L 7.359375 -9.453125 L 8.453125 -9.453125 Z M 8.453125 0 "/></g></g><g style="fill:#ffffff;fill-opacity:1;"><g transform="translate(188.83982, 248.643683)"><path style="stroke:none" d="M 9.484375 -4.734375 C 9.484375 -4.003906 9.390625 -3.34375 9.203125 -2.75 C 9.023438 -2.15625 8.753906 -1.640625 8.390625 -1.203125 C 8.023438 -0.773438 7.570312 -0.445312 7.03125 -0.21875 C 6.488281 0.0078125 5.863281 0.125 5.15625 0.125 C 4.425781 0.125 3.785156 0.0078125 3.234375 -0.21875 C 2.691406 -0.445312 2.238281 -0.773438 1.875 -1.203125 C 1.519531 -1.640625 1.253906 -2.15625 1.078125 -2.75 C 0.898438 -3.351562 0.8125 -4.019531 0.8125 -4.75 C 0.8125 -5.71875 0.96875 -6.5625 1.28125 -7.28125 C 1.601562 -8.007812 2.085938 -8.578125 2.734375 -8.984375 C 3.378906 -9.390625 4.191406 -9.59375 5.171875 -9.59375 C 6.109375 -9.59375 6.894531 -9.390625 7.53125 -8.984375 C 8.175781 -8.585938 8.660156 -8.023438 8.984375 -7.296875 C 9.316406 -6.578125 9.484375 -5.722656 9.484375 -4.734375 Z M 1.96875 -4.734375 C 1.96875 -3.929688 2.082031 -3.238281 2.3125 -2.65625 C 2.539062 -2.070312 2.890625 -1.617188 3.359375 -1.296875 C 3.828125 -0.984375 4.425781 -0.828125 5.15625 -0.828125 C 5.882812 -0.828125 6.484375 -0.984375 6.953125 -1.296875 C 7.421875 -1.617188 7.765625 -2.070312 7.984375 -2.65625 C 8.210938 -3.238281 8.328125 -3.929688 8.328125 -4.734375 C 8.328125 -5.953125 8.070312 -6.90625 7.5625 -7.59375 C 7.050781 -8.28125 6.253906 -8.625 5.171875 -8.625 C 4.441406 -8.625 3.835938 -8.46875 3.359375 -8.15625 C 2.890625 -7.84375 2.539062 -7.394531 2.3125 -6.8125 C 2.082031 -6.226562 1.96875 -5.535156 1.96875 -4.734375 Z M 1.96875 -4.734375 "/></g></g><g style="fill:#ffffff;fill-opacity:1;"><g transform="translate(200.475679, 248.643683)"><path style="stroke:none" d="M 3.765625 -9.453125 C 4.984375 -9.453125 5.875 -9.210938 6.4375 -8.734375 C 7 -8.253906 7.28125 -7.570312 7.28125 -6.6875 C 7.28125 -6.289062 7.210938 -5.910156 7.078125 -5.546875 C 6.941406 -5.191406 6.726562 -4.875 6.4375 -4.59375 C 6.144531 -4.320312 5.757812 -4.109375 5.28125 -3.953125 C 4.8125 -3.796875 4.234375 -3.71875 3.546875 -3.71875 L 2.390625 -3.71875 L 2.390625 0 L 1.296875 0 L 1.296875 -9.453125 Z M 3.65625 -8.515625 L 2.390625 -8.515625 L 2.390625 -4.65625 L 3.421875 -4.65625 C 4.023438 -4.65625 4.523438 -4.71875 4.921875 -4.84375 C 5.328125 -4.976562 5.628906 -5.191406 5.828125 -5.484375 C 6.035156 -5.773438 6.140625 -6.160156 6.140625 -6.640625 C 6.140625 -7.273438 5.9375 -7.742188 5.53125 -8.046875 C 5.132812 -8.359375 4.507812 -8.515625 3.65625 -8.515625 Z M 3.65625 -8.515625 "/></g></g><g style="fill:#ffffff;fill-opacity:1;"><g transform="translate(209.780481, 248.643683)"><path style="stroke:none" d="M 6.546875 0 L 1.296875 0 L 1.296875 -9.453125 L 6.546875 -9.453125 L 6.546875 -8.484375 L 2.390625 -8.484375 L 2.390625 -5.421875 L 6.3125 -5.421875 L 6.3125 -4.46875 L 2.390625 -4.46875 L 2.390625 -0.96875 L 6.546875 -0.96875 Z M 6.546875 0 "/></g></g><g style="fill:#ffffff;fill-opacity:1;"><g transform="translate(218.478304, 248.643683)"><path style="stroke:none" d=""/></g></g><g style="fill:#ffffff;fill-opacity:1;"><g transform="translate(223.263051, 248.643683)"><path style="stroke:none" d="M 4.1875 0 L 3.09375 0 L 3.09375 -8.484375 L 0.109375 -8.484375 L 0.109375 -9.453125 L 7.15625 -9.453125 L 7.15625 -8.484375 L 4.1875 -8.484375 Z M 4.1875 0 "/></g></g><g style="fill:#ffffff;fill-opacity:1;"><g transform="translate(231.896301, 248.643683)"><path style="stroke:none" d="M 9.484375 -4.734375 C 9.484375 -4.003906 9.390625 -3.34375 9.203125 -2.75 C 9.023438 -2.15625 8.753906 -1.640625 8.390625 -1.203125 C 8.023438 -0.773438 7.570312 -0.445312 7.03125 -0.21875 C 6.488281 0.0078125 5.863281 0.125 5.15625 0.125 C 4.425781 0.125 3.785156 0.0078125 3.234375 -0.21875 C 2.691406 -0.445312 2.238281 -0.773438 1.875 -1.203125 C 1.519531 -1.640625 1.253906 -2.15625 1.078125 -2.75 C 0.898438 -3.351562 0.8125 -4.019531 0.8125 -4.75 C 0.8125 -5.71875 0.96875 -6.5625 1.28125 -7.28125 C 1.601562 -8.007812 2.085938 -8.578125 2.734375 -8.984375 C 3.378906 -9.390625 4.191406 -9.59375 5.171875 -9.59375 C 6.109375 -9.59375 6.894531 -9.390625 7.53125 -8.984375 C 8.175781 -8.585938 8.660156 -8.023438 8.984375 -7.296875 C 9.316406 -6.578125 9.484375 -5.722656 9.484375 -4.734375 Z M 1.96875 -4.734375 C 1.96875 -3.929688 2.082031 -3.238281 2.3125 -2.65625 C 2.539062 -2.070312 2.890625 -1.617188 3.359375 -1.296875 C 3.828125 -0.984375 4.425781 -0.828125 5.15625 -0.828125 C 5.882812 -0.828125 6.484375 -0.984375 6.953125 -1.296875 C 7.421875 -1.617188 7.765625 -2.070312 7.984375 -2.65625 C 8.210938 -3.238281 8.328125 -3.929688 8.328125 -4.734375 C 8.328125 -5.953125 8.070312 -6.90625 7.5625 -7.59375 C 7.050781 -8.28125 6.253906 -8.625 5.171875 -8.625 C 4.441406 -8.625 3.835938 -8.46875 3.359375 -8.15625 C 2.890625 -7.84375 2.539062 -7.394531 2.3125 -6.8125 C 2.082031 -6.226562 1.96875 -5.535156 1.96875 -4.734375 Z M 1.96875 -4.734375 "/></g></g><g style="fill:#ffffff;fill-opacity:1;"><g transform="translate(243.532161, 248.643683)"><path style="stroke:none" d=""/></g></g><g style="fill:#ffffff;fill-opacity:1;"><g transform="translate(248.316907, 248.643683)"><path style="stroke:none" d="M 1.296875 0 L 1.296875 -9.453125 L 2.390625 -9.453125 L 2.390625 -0.984375 L 6.578125 -0.984375 L 6.578125 0 Z M 1.296875 0 "/></g></g><g style="fill:#ffffff;fill-opacity:1;"><g transform="translate(256.569182, 248.643683)"><path style="stroke:none" d="M 1.296875 0 L 1.296875 -9.453125 L 2.390625 -9.453125 L 2.390625 0 Z M 1.296875 0 "/></g></g><g style="fill:#ffffff;fill-opacity:1;"><g transform="translate(261.612217, 248.643683)"><path style="stroke:none" d="M 2.390625 0 L 1.296875 0 L 1.296875 -9.453125 L 6.546875 -9.453125 L 6.546875 -8.484375 L 2.390625 -8.484375 L 2.390625 -5.015625 L 6.296875 -5.015625 L 6.296875 -4.046875 L 2.390625 -4.046875 Z M 2.390625 0 "/></g></g><g style="fill:#ffffff;fill-opacity:1;"><g transform="translate(269.787005, 248.643683)"><path style="stroke:none" d="M 6.546875 0 L 1.296875 0 L 1.296875 -9.453125 L 6.546875 -9.453125 L 6.546875 -8.484375 L 2.390625 -8.484375 L 2.390625 -5.421875 L 6.3125 -5.421875 L 6.3125 -4.46875 L 2.390625 -4.46875 L 2.390625 -0.96875 L 6.546875 -0.96875 Z M 6.546875 0 "/></g></g><g style="fill:#5ce1e6;fill-opacity:1;"><g transform="translate(233.732, 220.780644)"><path style="stroke:none" d="M 21.828125 -26.421875 L 12.734375 0 L 8.9375 0 L -0.140625 -26.421875 L 3.625 -26.421875 L 10.9375 -4.484375 L 18.25 -26.421875 Z M 21.828125 -26.421875 "/></g></g></g></svg>