<svg xmlns="http://www.w3.org/2000/svg" xmlns:xlink="http://www.w3.org/1999/xlink" width="559" zoomAndPan="magnify" viewBox="0 0 419.25 297.749991" height="397" preserveAspectRatio="xMidYMid meet" version="1.2"><defs><clipPath id="05c12c1b34"><path d="M 0 0.140625 L 418.5 0.140625 L 418.5 297.359375 L 0 297.359375 Z M 0 0.140625 "/></clipPath><clipPath id="61ca9ccdf1"><path d="M 0 0.140625 L 418.222656 0.140625 L 418.222656 297.164062 L 0 297.164062 Z M 0 0.140625 "/></clipPath><clipPath id="aa123a1121"><path d="M 194.339844 78.75 L 219.777344 78.75 L 219.777344 156.558594 L 194.339844 156.558594 Z M 194.339844 78.75 "/></clipPath><clipPath id="22872654f9"><path d="M 192 60 L 227 60 L 227 88.753906 L 192 88.753906 Z M 192 60 "/></clipPath><clipPath id="cd2ea2207d"><path d="M 188.265625 57 L 198 57 L 198 71 L 188.265625 71 Z M 188.265625 57 "/></clipPath><clipPath id="331afaabd7"><path d="M 220 57 L 230.160156 57 L 230.160156 71 L 220 71 Z M 220 57 "/></clipPath><clipPath id="56ac0c2aa7"><path d="M 156.320312 89 L 261.8125 89 L 261.8125 170.242188 L 156.320312 170.242188 Z M 156.320312 89 "/></clipPath></defs><g id="693661358b"><g clip-rule="nonzero" clip-path="url(#05c12c1b34)"><path style=" stroke:none;fill-rule:nonzero;fill:#ffffff;fill-opacity:1;" d="M 0 0.140625 L 418.5 0.140625 L 418.5 297.359375 L 0 297.359375 Z M 0 0.140625 "/></g><g clip-rule="nonzero" clip-path="url(#61ca9ccdf1)"><path style=" stroke:none;fill-rule:nonzero;fill:#0f175f;fill-opacity:1;" d="M 0 0.140625 L 418.222656 0.140625 L 418.222656 297.164062 L 0 297.164062 Z M 0 0.140625 "/></g><g clip-rule="nonzero" clip-path="url(#aa123a1121)"><path style=" stroke:none;fill-rule:evenodd;fill:#ffffff;fill-opacity:1;" d="M 211.113281 106.761719 C 210.765625 106.761719 210.765625 106.414062 210.765625 106.414062 C 210.765625 106.414062 211.113281 88.605469 211.113281 88.085938 C 211.113281 87.566406 211.457031 87.394531 211.804688 87.046875 C 213.015625 86.183594 213.878906 84.800781 213.878906 83.246094 C 213.878906 80.652344 211.804688 78.75 209.382812 78.75 C 206.789062 78.75 204.886719 80.824219 204.886719 83.246094 C 204.886719 84.972656 205.753906 86.355469 207.136719 87.222656 C 207.480469 87.394531 207.65625 87.738281 207.828125 88.085938 C 207.828125 88.433594 208.171875 105.722656 208.171875 105.722656 C 208.171875 105.894531 208 106.070312 207.65625 106.070312 C 202.640625 105.03125 199.007812 103.300781 198.492188 102.089844 C 198.144531 101.054688 198.664062 99.671875 200.046875 99.324219 C 200.21875 99.324219 200.566406 99.324219 200.566406 99.324219 C 201.429688 99.671875 202.8125 99.671875 203.679688 99.84375 C 204.714844 100.015625 205.234375 100.015625 205.40625 99.84375 C 205.578125 99.671875 206.097656 99.152344 205.925781 98.804688 C 205.578125 98.632812 204.886719 97.597656 203.503906 96.558594 C 202.292969 95.519531 201.601562 95.519531 199.699219 96.039062 C 195.03125 96.730469 194.339844 100.363281 195.03125 102.4375 C 196.242188 106.585938 204.195312 108.316406 208.171875 109.007812 C 213.535156 109.871094 216.300781 110.738281 216.300781 111.773438 C 216.300781 112.464844 214.917969 113.332031 212.152344 114.367188 C 211.976562 114.367188 211.804688 114.542969 211.804688 114.886719 C 211.804688 115.058594 211.804688 115.925781 211.804688 116.441406 C 211.804688 116.617188 211.804688 116.789062 212.152344 116.789062 C 216.300781 115.40625 219.757812 113.847656 219.757812 111.949219 C 219.585938 109.699219 215.78125 107.796875 211.113281 106.761719 Z M 210.421875 139.09375 C 210.25 139.09375 210.074219 138.921875 210.074219 138.75 C 210.074219 137.019531 210.25 128.199219 210.25 127.855469 C 210.25 127.507812 210.074219 127.507812 209.902344 127.335938 C 209.382812 127.164062 209.039062 127.164062 208.691406 126.992188 C 208.519531 126.992188 208.347656 126.992188 208.347656 127.164062 C 208.347656 127.335938 208.347656 128.375 208.347656 128.375 C 208.347656 128.375 208.347656 130.96875 208.347656 131.484375 C 208.347656 131.832031 208.171875 132.003906 208 132.003906 C 205.40625 132.871094 202.8125 133.90625 202.988281 136.5 C 203.160156 138.402344 205.234375 139.613281 208.691406 140.476562 C 211.285156 141.167969 214.746094 143.761719 211.285156 148.949219 C 210.941406 149.46875 211.632812 148.949219 212.496094 147.738281 C 214.226562 145.492188 215.609375 140.824219 210.421875 139.09375 Z M 208.519531 138.574219 C 206.617188 138.058594 205.40625 137.191406 205.234375 136.328125 C 205.234375 135.636719 205.578125 134.773438 208.347656 133.90625 C 208.691406 133.734375 208.691406 133.90625 208.691406 134.078125 L 208.691406 135.980469 C 208.691406 135.980469 208.691406 137.882812 208.691406 138.230469 C 208.867188 138.574219 208.519531 138.574219 208.519531 138.574219 Z M 210.765625 124.742188 C 213.1875 125.433594 216.300781 126.644531 216.644531 128.546875 C 216.644531 128.71875 216.644531 128.71875 216.644531 128.894531 C 216.644531 130.96875 214.050781 132.179688 211.632812 133.042969 C 211.632812 133.042969 211.457031 133.042969 211.457031 132.871094 C 211.457031 132.523438 211.457031 131.832031 211.457031 131.660156 C 211.457031 131.3125 211.632812 131.3125 211.804688 131.3125 C 213.707031 130.621094 214.917969 129.929688 214.917969 129.066406 C 214.917969 127.683594 208.347656 126.300781 208 126.125 C 204.542969 125.089844 200.046875 124.398438 199.875 121.804688 C 199.527344 118.691406 205.925781 116.789062 208.171875 116.097656 C 208.347656 116.097656 208.347656 115.925781 208.347656 115.75 L 208.347656 110.738281 C 208.347656 110.5625 208.519531 110.390625 208.691406 110.5625 C 209.382812 110.738281 209.902344 110.738281 210.59375 110.910156 C 210.765625 110.910156 210.941406 111.082031 210.941406 111.257812 C 210.941406 111.429688 210.941406 112.640625 210.941406 112.640625 L 210.59375 120.59375 L 210.59375 124.398438 C 210.421875 124.570312 210.59375 124.570312 210.765625 124.742188 Z M 208.171875 124.050781 C 208.171875 124.050781 208.347656 124.050781 208.347656 123.878906 C 208.347656 122.839844 208.171875 118.34375 208.171875 118.171875 C 208.171875 118 208 118 208 118 C 204.714844 119.035156 201.601562 120.246094 201.601562 121.285156 C 201.777344 122.496094 205.40625 123.1875 208.171875 124.050781 Z M 209.902344 141.6875 C 209.902344 141.6875 210.074219 141.859375 210.074219 142.035156 C 210.074219 142.207031 209.730469 156.210938 209.730469 156.210938 C 209.730469 156.386719 209.558594 156.558594 209.382812 156.558594 C 209.210938 156.558594 209.039062 156.386719 209.039062 156.210938 C 209.039062 156.210938 208.691406 141.859375 208.691406 141.6875 C 208.691406 141.515625 208.867188 141.515625 208.867188 141.515625 C 209.382812 141.515625 209.558594 141.6875 209.902344 141.6875 Z M 201.777344 96.558594 C 202.121094 96.558594 202.292969 96.730469 202.292969 97.078125 C 202.292969 97.421875 202.121094 97.597656 201.777344 97.597656 C 201.429688 97.597656 201.257812 97.421875 201.257812 97.078125 C 201.257812 96.90625 201.429688 96.558594 201.777344 96.558594 Z M 201.777344 96.558594 "/></g><g clip-rule="nonzero" clip-path="url(#22872654f9)"><path style=" stroke:none;fill-rule:nonzero;fill:#ffffff;fill-opacity:1;" d="M 220.339844 70.730469 C 219.941406 70.445312 219.53125 70.175781 219.117188 69.925781 C 216.636719 68.425781 214.714844 66.304688 213.304688 63.90625 C 212.191406 62.015625 210.902344 60.933594 209.53125 60.933594 C 208.050781 60.933594 206.675781 62.191406 205.507812 64.359375 C 204.269531 66.65625 202.308594 68.300781 200.128906 69.660156 C 196.871094 71.699219 193.71875 74.996094 192.691406 78.792969 C 191.082031 84.757812 196.667969 88.582031 202.085938 88.210938 C 204.484375 88.054688 207.039062 87.261719 209.40625 85.847656 C 211.851562 87.316406 214.503906 88.113281 216.972656 88.226562 C 220.738281 88.398438 225.070312 86.363281 226.1875 82.523438 C 227.515625 77.960938 223.820312 73.234375 220.339844 70.730469 "/></g><g clip-rule="nonzero" clip-path="url(#cd2ea2207d)"><path style=" stroke:none;fill-rule:nonzero;fill:#ffffff;fill-opacity:1;" d="M 197.484375 64.46875 C 197.484375 67.628906 195.417969 70.1875 192.875 70.1875 C 190.328125 70.1875 188.265625 67.628906 188.265625 64.46875 C 188.265625 61.3125 189.070312 57.335938 191.617188 57.335938 C 194.160156 57.335938 197.484375 61.3125 197.484375 64.46875 "/></g><path style=" stroke:none;fill-rule:nonzero;fill:#ffffff;fill-opacity:1;" d="M 190.390625 59.125 C 189.40625 56.109375 190.328125 53.015625 190.84375 52.824219 C 191.359375 52.628906 191.425781 57.140625 192.875 58.753906 C 194.324219 60.363281 190.390625 59.125 190.390625 59.125 "/><path style=" stroke:none;fill-rule:nonzero;fill:#ffffff;fill-opacity:1;" d="M 207.441406 55.785156 C 207.441406 58.941406 205.378906 61.5 202.835938 61.5 C 200.289062 61.5 198.226562 58.941406 198.226562 55.785156 C 198.226562 52.628906 199.03125 48.652344 201.574219 48.652344 C 204.121094 48.652344 207.441406 52.628906 207.441406 55.785156 "/><path style=" stroke:none;fill-rule:nonzero;fill:#ffffff;fill-opacity:1;" d="M 200.351562 50.441406 C 199.367188 47.425781 200.285156 44.332031 200.800781 44.136719 C 201.316406 43.945312 201.386719 48.457031 202.835938 50.070312 C 204.28125 51.679688 200.351562 50.441406 200.351562 50.441406 "/><g clip-rule="nonzero" clip-path="url(#331afaabd7)"><path style=" stroke:none;fill-rule:nonzero;fill:#ffffff;fill-opacity:1;" d="M 220.941406 64.46875 C 220.941406 67.628906 223.003906 70.1875 225.550781 70.1875 C 228.09375 70.1875 230.160156 67.628906 230.160156 64.46875 C 230.160156 61.3125 229.355469 57.335938 226.808594 57.335938 C 224.265625 57.335938 220.941406 61.3125 220.941406 64.46875 "/></g><path style=" stroke:none;fill-rule:nonzero;fill:#ffffff;fill-opacity:1;" d="M 228.035156 59.125 C 229.019531 56.109375 228.097656 53.015625 227.582031 52.824219 C 227.066406 52.628906 227 57.140625 225.550781 58.753906 C 224.101562 60.363281 228.035156 59.125 228.035156 59.125 "/><path style=" stroke:none;fill-rule:nonzero;fill:#ffffff;fill-opacity:1;" d="M 210.984375 55.785156 C 210.984375 58.941406 213.046875 61.5 215.589844 61.5 C 218.136719 61.5 220.199219 58.941406 220.199219 55.785156 C 220.199219 52.628906 219.394531 48.652344 216.851562 48.652344 C 214.304688 48.652344 210.984375 52.628906 210.984375 55.785156 "/><path style=" stroke:none;fill-rule:nonzero;fill:#ffffff;fill-opacity:1;" d="M 218.074219 50.441406 C 219.058594 47.425781 218.140625 44.332031 217.625 44.136719 C 217.109375 43.945312 217.039062 48.457031 215.589844 50.070312 C 214.140625 51.679688 218.074219 50.441406 218.074219 50.441406 "/><g clip-rule="nonzero" clip-path="url(#56ac0c2aa7)"><path style=" stroke:none;fill-rule:nonzero;fill:#ffffff;fill-opacity:1;" d="M 257.765625 107.601562 C 257.765625 134.269531 236.214844 156.058594 209.304688 156.058594 C 182.753906 155.941406 160.964844 134.507812 160.964844 107.601562 C 160.964844 100.933594 162.273438 94.980469 164.417969 89.027344 C 159.296875 97.480469 156.320312 107.003906 156.320312 117.484375 C 156.320312 146.773438 180.015625 170.226562 209.066406 170.226562 C 238.359375 170.226562 261.8125 146.414062 261.8125 117.484375 C 261.8125 107.003906 258.71875 97.242188 253.71875 89.027344 C 256.574219 95.097656 257.765625 101.410156 257.765625 107.601562 Z M 257.765625 107.601562 "/></g><g style="fill:#ffffff;fill-opacity:1;"><g transform="translate(123.334845, 220.780658)"><path style="stroke:none" d="M 11.90625 0.546875 C 10.351562 0.546875 9 0.34375 7.84375 -0.0625 C 6.6875 -0.46875 5.695312 -1.070312 4.875 -1.875 C 3.957031 -2.800781 3.304688 -3.90625 2.921875 -5.1875 C 2.546875 -6.46875 2.359375 -8.050781 2.359375 -9.9375 L 2.359375 -26.421875 L 5.875 -26.421875 L 5.875 -9.9375 C 5.875 -8.71875 5.945312 -7.691406 6.09375 -6.859375 C 6.25 -6.023438 6.554688 -5.273438 7.015625 -4.609375 C 7.484375 -3.898438 8.125 -3.363281 8.9375 -3 C 9.75 -2.632812 10.738281 -2.453125 11.90625 -2.453125 C 13.007812 -2.453125 13.984375 -2.632812 14.828125 -3 C 15.679688 -3.363281 16.347656 -3.898438 16.828125 -4.609375 C 17.265625 -5.285156 17.5625 -6.03125 17.71875 -6.84375 C 17.875 -7.664062 17.953125 -8.664062 17.953125 -9.84375 L 17.953125 -26.421875 L 21.46875 -26.421875 L 21.46875 -9.9375 C 21.46875 -8.101562 21.28125 -6.53125 20.90625 -5.21875 C 20.539062 -3.90625 19.890625 -2.789062 18.953125 -1.875 C 18.109375 -1.0625 17.128906 -0.453125 16.015625 -0.046875 C 14.898438 0.347656 13.53125 0.546875 11.90625 0.546875 Z M 11.90625 0.546875 "/></g></g><g style="fill:#ffffff;fill-opacity:1;"><g transform="translate(147.163984, 220.780658)"><path style="stroke:none" d="M 18 0 L 2.671875 0 L 2.671875 -26.421875 L 6.1875 -26.421875 L 6.1875 -3.125 L 18 -3.125 Z M 18 0 "/></g></g><g style="fill:#ffffff;fill-opacity:1;"><g transform="translate(165.244321, 220.780658)"><path style="stroke:none" d="M 8.859375 0 L 8.859375 -23.296875 L -0.015625 -23.296875 L -0.015625 -26.421875 L 21.234375 -26.421875 L 21.234375 -23.296875 L 12.375 -23.296875 L 12.375 0 Z M 8.859375 0 "/></g></g><g style="fill:#ffffff;fill-opacity:1;"><g transform="translate(186.465207, 220.780658)"><path style="stroke:none" d="M 23.140625 0 L 18.578125 0 L 10.203125 -10.5 L 6.1875 -10.5 L 6.1875 0 L 2.671875 0 L 2.671875 -26.421875 L 9.5 -26.421875 C 11.007812 -26.421875 12.273438 -26.335938 13.296875 -26.171875 C 14.316406 -26.003906 15.289062 -25.617188 16.21875 -25.015625 C 17.144531 -24.429688 17.875 -23.671875 18.40625 -22.734375 C 18.945312 -21.796875 19.21875 -20.632812 19.21875 -19.25 C 19.21875 -17.3125 18.722656 -15.691406 17.734375 -14.390625 C 16.753906 -13.085938 15.421875 -12.125 13.734375 -11.5 Z M 15.546875 -18.984375 C 15.546875 -19.753906 15.410156 -20.4375 15.140625 -21.03125 C 14.867188 -21.632812 14.445312 -22.125 13.875 -22.5 C 13.375 -22.832031 12.789062 -23.066406 12.125 -23.203125 C 11.46875 -23.335938 10.648438 -23.40625 9.671875 -23.40625 L 6.1875 -23.40625 L 6.1875 -13.4375 L 9.28125 -13.4375 C 10.289062 -13.4375 11.195312 -13.523438 12 -13.703125 C 12.800781 -13.878906 13.488281 -14.242188 14.0625 -14.796875 C 14.5625 -15.296875 14.929688 -15.890625 15.171875 -16.578125 C 15.421875 -17.265625 15.546875 -18.066406 15.546875 -18.984375 Z M 15.546875 -18.984375 "/></g></g><g style="fill:#ffffff;fill-opacity:1;"><g transform="translate(209.016835, 220.780658)"><path style="stroke:none" d="M -0.171875 0 L 8.734375 -26.421875 L 13.0625 -26.421875 L 21.96875 0 L 18.265625 0 L 15.859375 -7.375 L 5.765625 -7.375 L 3.375 0 Z M 14.890625 -10.375 L 10.8125 -22.84375 L 6.75 -10.375 Z M 14.890625 -10.375 "/></g></g><g style="fill:#ffffff;fill-opacity:1;"><g transform="translate(230.815679, 220.780658)"><path style="stroke:none" d=""/></g></g><g style="fill:#ffffff;fill-opacity:1;"><g transform="translate(242.171337, 220.780658)"><path style="stroke:none" d=""/></g></g><g style="fill:#ffffff;fill-opacity:1;"><g transform="translate(253.530418, 220.780658)"><path style="stroke:none" d="M 2.671875 0 L 2.671875 -26.421875 L 19.203125 -26.421875 L 19.203125 -23.296875 L 6.1875 -23.296875 L 6.1875 -16.0625 L 18.3125 -16.0625 L 18.3125 -12.9375 L 6.1875 -12.9375 L 6.1875 -3.125 L 19.203125 -3.125 L 19.203125 0 Z M 2.671875 0 "/></g></g><g style="fill:#ffffff;fill-opacity:1;"><g transform="translate(273.917373, 220.780658)"><path style="stroke:none" d="M 8.859375 0 L 8.859375 -23.296875 L -0.015625 -23.296875 L -0.015625 -26.421875 L 21.234375 -26.421875 L 21.234375 -23.296875 L 12.375 -23.296875 L 12.375 0 Z M 8.859375 0 "/></g></g><g style="fill:#ffffff;fill-opacity:1;"><g transform="translate(141.353683, 248.643683)"><path style="stroke:none" d="M 7.21875 0 L 6.0625 -3 L 2.265625 -3 L 1.109375 0 L 0 0 L 3.703125 -9.484375 L 4.6875 -9.484375 L 8.359375 0 Z M 5.71875 -3.96875 L 4.625 -6.953125 C 4.59375 -7.023438 4.546875 -7.148438 4.484375 -7.328125 C 4.429688 -7.503906 4.375 -7.6875 4.3125 -7.875 C 4.25 -8.070312 4.203125 -8.226562 4.171875 -8.34375 C 4.128906 -8.164062 4.082031 -7.988281 4.03125 -7.8125 C 3.976562 -7.632812 3.925781 -7.472656 3.875 -7.328125 C 3.832031 -7.179688 3.796875 -7.054688 3.765625 -6.953125 L 2.640625 -3.96875 Z M 5.71875 -3.96875 "/></g></g><g style="fill:#ffffff;fill-opacity:1;"><g transform="translate(151.06529, 248.643683)"><path style="stroke:none" d="M 8.796875 -4.8125 C 8.796875 -3.75 8.597656 -2.859375 8.203125 -2.140625 C 7.816406 -1.429688 7.253906 -0.894531 6.515625 -0.53125 C 5.785156 -0.175781 4.898438 0 3.859375 0 L 1.296875 0 L 1.296875 -9.453125 L 4.140625 -9.453125 C 5.097656 -9.453125 5.921875 -9.273438 6.609375 -8.921875 C 7.304688 -8.566406 7.84375 -8.046875 8.21875 -7.359375 C 8.601562 -6.671875 8.796875 -5.820312 8.796875 -4.8125 Z M 7.640625 -4.78125 C 7.640625 -5.625 7.5 -6.320312 7.21875 -6.875 C 6.9375 -7.425781 6.519531 -7.835938 5.96875 -8.109375 C 5.425781 -8.378906 4.757812 -8.515625 3.96875 -8.515625 L 2.390625 -8.515625 L 2.390625 -0.9375 L 3.734375 -0.9375 C 5.035156 -0.9375 6.007812 -1.257812 6.65625 -1.90625 C 7.3125 -2.550781 7.640625 -3.507812 7.640625 -4.78125 Z M 7.640625 -4.78125 "/></g></g><g style="fill:#ffffff;fill-opacity:1;"><g transform="translate(162.010227, 248.643683)"><path style="stroke:none" d="M 8.796875 -4.8125 C 8.796875 -3.75 8.597656 -2.859375 8.203125 -2.140625 C 7.816406 -1.429688 7.253906 -0.894531 6.515625 -0.53125 C 5.785156 -0.175781 4.898438 0 3.859375 0 L 1.296875 0 L 1.296875 -9.453125 L 4.140625 -9.453125 C 5.097656 -9.453125 5.921875 -9.273438 6.609375 -8.921875 C 7.304688 -8.566406 7.84375 -8.046875 8.21875 -7.359375 C 8.601562 -6.671875 8.796875 -5.820312 8.796875 -4.8125 Z M 7.640625 -4.78125 C 7.640625 -5.625 7.5 -6.320312 7.21875 -6.875 C 6.9375 -7.425781 6.519531 -7.835938 5.96875 -8.109375 C 5.425781 -8.378906 4.757812 -8.515625 3.96875 -8.515625 L 2.390625 -8.515625 L 2.390625 -0.9375 L 3.734375 -0.9375 C 5.035156 -0.9375 6.007812 -1.257812 6.65625 -1.90625 C 7.3125 -2.550781 7.640625 -3.507812 7.640625 -4.78125 Z M 7.640625 -4.78125 "/></g></g><g style="fill:#ffffff;fill-opacity:1;"><g transform="translate(172.955164, 248.643683)"><path style="stroke:none" d=""/></g></g><g style="fill:#ffffff;fill-opacity:1;"><g transform="translate(177.73991, 248.643683)"><path style="stroke:none" d="M 8.453125 0 L 7.359375 0 L 7.359375 -4.453125 L 2.390625 -4.453125 L 2.390625 0 L 1.296875 0 L 1.296875 -9.453125 L 2.390625 -9.453125 L 2.390625 -5.421875 L 7.359375 -5.421875 L 7.359375 -9.453125 L 8.453125 -9.453125 Z M 8.453125 0 "/></g></g><g style="fill:#ffffff;fill-opacity:1;"><g transform="translate(188.83982, 248.643683)"><path style="stroke:none" d="M 9.484375 -4.734375 C 9.484375 -4.003906 9.390625 -3.34375 9.203125 -2.75 C 9.023438 -2.15625 8.753906 -1.640625 8.390625 -1.203125 C 8.023438 -0.773438 7.570312 -0.445312 7.03125 -0.21875 C 6.488281 0.0078125 5.863281 0.125 5.15625 0.125 C 4.425781 0.125 3.785156 0.0078125 3.234375 -0.21875 C 2.691406 -0.445312 2.238281 -0.773438 1.875 -1.203125 C 1.519531 -1.640625 1.253906 -2.15625 1.078125 -2.75 C 0.898438 -3.351562 0.8125 -4.019531 0.8125 -4.75 C 0.8125 -5.71875 0.96875 -6.5625 1.28125 -7.28125 C 1.601562 -8.007812 2.085938 -8.578125 2.734375 -8.984375 C 3.378906 -9.390625 4.191406 -9.59375 5.171875 -9.59375 C 6.109375 -9.59375 6.894531 -9.390625 7.53125 -8.984375 C 8.175781 -8.585938 8.660156 -8.023438 8.984375 -7.296875 C 9.316406 -6.578125 9.484375 -5.722656 9.484375 -4.734375 Z M 1.96875 -4.734375 C 1.96875 -3.929688 2.082031 -3.238281 2.3125 -2.65625 C 2.539062 -2.070312 2.890625 -1.617188 3.359375 -1.296875 C 3.828125 -0.984375 4.425781 -0.828125 5.15625 -0.828125 C 5.882812 -0.828125 6.484375 -0.984375 6.953125 -1.296875 C 7.421875 -1.617188 7.765625 -2.070312 7.984375 -2.65625 C 8.210938 -3.238281 8.328125 -3.929688 8.328125 -4.734375 C 8.328125 -5.953125 8.070312 -6.90625 7.5625 -7.59375 C 7.050781 -8.28125 6.253906 -8.625 5.171875 -8.625 C 4.441406 -8.625 3.835938 -8.46875 3.359375 -8.15625 C 2.890625 -7.84375 2.539062 -7.394531 2.3125 -6.8125 C 2.082031 -6.226562 1.96875 -5.535156 1.96875 -4.734375 Z M 1.96875 -4.734375 "/></g></g><g style="fill:#ffffff;fill-opacity:1;"><g transform="translate(200.475679, 248.643683)"><path style="stroke:none" d="M 3.765625 -9.453125 C 4.984375 -9.453125 5.875 -9.210938 6.4375 -8.734375 C 7 -8.253906 7.28125 -7.570312 7.28125 -6.6875 C 7.28125 -6.289062 7.210938 -5.910156 7.078125 -5.546875 C 6.941406 -5.191406 6.726562 -4.875 6.4375 -4.59375 C 6.144531 -4.320312 5.757812 -4.109375 5.28125 -3.953125 C 4.8125 -3.796875 4.234375 -3.71875 3.546875 -3.71875 L 2.390625 -3.71875 L 2.390625 0 L 1.296875 0 L 1.296875 -9.453125 Z M 3.65625 -8.515625 L 2.390625 -8.515625 L 2.390625 -4.65625 L 3.421875 -4.65625 C 4.023438 -4.65625 4.523438 -4.71875 4.921875 -4.84375 C 5.328125 -4.976562 5.628906 -5.191406 5.828125 -5.484375 C 6.035156 -5.773438 6.140625 -6.160156 6.140625 -6.640625 C 6.140625 -7.273438 5.9375 -7.742188 5.53125 -8.046875 C 5.132812 -8.359375 4.507812 -8.515625 3.65625 -8.515625 Z M 3.65625 -8.515625 "/></g></g><g style="fill:#ffffff;fill-opacity:1;"><g transform="translate(209.780481, 248.643683)"><path style="stroke:none" d="M 6.546875 0 L 1.296875 0 L 1.296875 -9.453125 L 6.546875 -9.453125 L 6.546875 -8.484375 L 2.390625 -8.484375 L 2.390625 -5.421875 L 6.3125 -5.421875 L 6.3125 -4.46875 L 2.390625 -4.46875 L 2.390625 -0.96875 L 6.546875 -0.96875 Z M 6.546875 0 "/></g></g><g style="fill:#ffffff;fill-opacity:1;"><g transform="translate(218.478304, 248.643683)"><path style="stroke:none" d=""/></g></g><g style="fill:#ffffff;fill-opacity:1;"><g transform="translate(223.263051, 248.643683)"><path style="stroke:none" d="M 4.1875 0 L 3.09375 0 L 3.09375 -8.484375 L 0.109375 -8.484375 L 0.109375 -9.453125 L 7.15625 -9.453125 L 7.15625 -8.484375 L 4.1875 -8.484375 Z M 4.1875 0 "/></g></g><g style="fill:#ffffff;fill-opacity:1;"><g transform="translate(231.896301, 248.643683)"><path style="stroke:none" d="M 9.484375 -4.734375 C 9.484375 -4.003906 9.390625 -3.34375 9.203125 -2.75 C 9.023438 -2.15625 8.753906 -1.640625 8.390625 -1.203125 C 8.023438 -0.773438 7.570312 -0.445312 7.03125 -0.21875 C 6.488281 0.0078125 5.863281 0.125 5.15625 0.125 C 4.425781 0.125 3.785156 0.0078125 3.234375 -0.21875 C 2.691406 -0.445312 2.238281 -0.773438 1.875 -1.203125 C 1.519531 -1.640625 1.253906 -2.15625 1.078125 -2.75 C 0.898438 -3.351562 0.8125 -4.019531 0.8125 -4.75 C 0.8125 -5.71875 0.96875 -6.5625 1.28125 -7.28125 C 1.601562 -8.007812 2.085938 -8.578125 2.734375 -8.984375 C 3.378906 -9.390625 4.191406 -9.59375 5.171875 -9.59375 C 6.109375 -9.59375 6.894531 -9.390625 7.53125 -8.984375 C 8.175781 -8.585938 8.660156 -8.023438 8.984375 -7.296875 C 9.316406 -6.578125 9.484375 -5.722656 9.484375 -4.734375 Z M 1.96875 -4.734375 C 1.96875 -3.929688 2.082031 -3.238281 2.3125 -2.65625 C 2.539062 -2.070312 2.890625 -1.617188 3.359375 -1.296875 C 3.828125 -0.984375 4.425781 -0.828125 5.15625 -0.828125 C 5.882812 -0.828125 6.484375 -0.984375 6.953125 -1.296875 C 7.421875 -1.617188 7.765625 -2.070312 7.984375 -2.65625 C 8.210938 -3.238281 8.328125 -3.929688 8.328125 -4.734375 C 8.328125 -5.953125 8.070312 -6.90625 7.5625 -7.59375 C 7.050781 -8.28125 6.253906 -8.625 5.171875 -8.625 C 4.441406 -8.625 3.835938 -8.46875 3.359375 -8.15625 C 2.890625 -7.84375 2.539062 -7.394531 2.3125 -6.8125 C 2.082031 -6.226562 1.96875 -5.535156 1.96875 -4.734375 Z M 1.96875 -4.734375 "/></g></g><g style="fill:#ffffff;fill-opacity:1;"><g transform="translate(243.532161, 248.643683)"><path style="stroke:none" d=""/></g></g><g style="fill:#ffffff;fill-opacity:1;"><g transform="translate(248.316907, 248.643683)"><path style="stroke:none" d="M 1.296875 0 L 1.296875 -9.453125 L 2.390625 -9.453125 L 2.390625 -0.984375 L 6.578125 -0.984375 L 6.578125 0 Z M 1.296875 0 "/></g></g><g style="fill:#ffffff;fill-opacity:1;"><g transform="translate(256.569182, 248.643683)"><path style="stroke:none" d="M 1.296875 0 L 1.296875 -9.453125 L 2.390625 -9.453125 L 2.390625 0 Z M 1.296875 0 "/></g></g><g style="fill:#ffffff;fill-opacity:1;"><g transform="translate(261.612217, 248.643683)"><path style="stroke:none" d="M 2.390625 0 L 1.296875 0 L 1.296875 -9.453125 L 6.546875 -9.453125 L 6.546875 -8.484375 L 2.390625 -8.484375 L 2.390625 -5.015625 L 6.296875 -5.015625 L 6.296875 -4.046875 L 2.390625 -4.046875 Z M 2.390625 0 "/></g></g><g style="fill:#ffffff;fill-opacity:1;"><g transform="translate(269.787005, 248.643683)"><path style="stroke:none" d="M 6.546875 0 L 1.296875 0 L 1.296875 -9.453125 L 6.546875 -9.453125 L 6.546875 -8.484375 L 2.390625 -8.484375 L 2.390625 -5.421875 L 6.3125 -5.421875 L 6.3125 -4.46875 L 2.390625 -4.46875 L 2.390625 -0.96875 L 6.546875 -0.96875 Z M 6.546875 0 "/></g></g><g style="fill:#5ce1e6;fill-opacity:1;"><g transform="translate(233.731972, 220.780658)"><path style="stroke:none" d="M 21.828125 -26.421875 L 12.734375 0 L 8.9375 0 L -0.140625 -26.421875 L 3.625 -26.421875 L 10.9375 -4.484375 L 18.25 -26.421875 Z M 21.828125 -26.421875 "/></g></g></g></svg>