<svg xmlns="http://www.w3.org/2000/svg" xmlns:xlink="http://www.w3.org/1999/xlink" width="500" zoomAndPan="magnify" viewBox="0 0 375 374.999991" height="500" preserveAspectRatio="xMidYMid meet" version="1.2"><defs><clipPath id="f3c2b10323"><path d="M 170 108.769531 L 199.804688 108.769531 L 199.804688 201 L 170 201 Z M 170 108.769531 "/></clipPath><clipPath id="c1a4166f6e"><path d="M 162.589844 83 L 174 83 L 174 99 L 162.589844 99 Z M 162.589844 83 "/></clipPath><clipPath id="dd392edc9b"><path d="M 176 67.363281 L 181 67.363281 L 181 76 L 176 76 Z M 176 67.363281 "/></clipPath><clipPath id="e9d28626a9"><path d="M 201 83 L 212.089844 83 L 212.089844 99 L 201 99 Z M 201 83 "/></clipPath><clipPath id="22b95465ab"><path d="M 194 67.363281 L 199 67.363281 L 199 76 L 194 76 Z M 194 67.363281 "/></clipPath><clipPath id="6bd9ca1a43"><path d="M 124.679688 120.609375 L 250.679688 120.609375 L 250.679688 217.359375 L 124.679688 217.359375 Z M 124.679688 120.609375 "/></clipPath></defs><g id="db5e5ecc1b"><rect x="0" width="375" y="0" height="374.999991" style="fill:#ffffff;fill-opacity:1;stroke:none;"/><rect x="0" width="375" y="0" height="374.999991" style="fill:#d6c2a7;fill-opacity:1;stroke:none;"/><g clip-rule="nonzero" clip-path="url(#f3c2b10323)"><path style=" stroke:none;fill-rule:evenodd;fill:#0f175f;fill-opacity:1;" d="M 189.597656 141.828125 C 189.191406 141.828125 189.191406 141.421875 189.191406 141.421875 C 189.191406 141.421875 189.597656 120.402344 189.597656 119.789062 C 189.597656 119.175781 190.007812 118.972656 190.414062 118.5625 C 191.84375 117.542969 192.863281 115.910156 192.863281 114.074219 C 192.863281 111.011719 190.414062 108.769531 187.558594 108.769531 C 184.496094 108.769531 182.25 111.21875 182.25 114.074219 C 182.25 116.113281 183.273438 117.746094 184.90625 118.769531 C 185.3125 118.972656 185.515625 119.378906 185.722656 119.789062 C 185.722656 120.195312 186.128906 140.605469 186.128906 140.605469 C 186.128906 140.808594 185.925781 141.011719 185.515625 141.011719 C 179.597656 139.789062 175.3125 137.746094 174.699219 136.320312 C 174.292969 135.09375 174.90625 133.460938 176.539062 133.054688 C 176.742188 133.054688 177.148438 133.054688 177.148438 133.054688 C 178.171875 133.460938 179.804688 133.460938 180.824219 133.664062 C 182.046875 133.871094 182.660156 133.871094 182.863281 133.664062 C 183.066406 133.460938 183.679688 132.847656 183.476562 132.441406 C 183.066406 132.238281 182.25 131.011719 180.617188 129.789062 C 179.191406 128.5625 178.375 128.5625 176.128906 129.175781 C 170.617188 129.992188 169.804688 134.277344 170.617188 136.726562 C 172.046875 141.625 181.433594 143.664062 186.128906 144.480469 C 192.457031 145.503906 195.722656 146.523438 195.722656 147.746094 C 195.722656 148.5625 194.089844 149.585938 190.824219 150.808594 C 190.617188 150.808594 190.414062 151.011719 190.414062 151.421875 C 190.414062 151.625 190.414062 152.644531 190.414062 153.257812 C 190.414062 153.460938 190.414062 153.664062 190.824219 153.664062 C 195.722656 152.03125 199.804688 150.195312 199.804688 147.953125 C 199.597656 145.296875 195.109375 143.054688 189.597656 141.828125 Z M 188.78125 179.992188 C 188.578125 179.992188 188.375 179.789062 188.375 179.585938 C 188.375 177.542969 188.578125 167.136719 188.578125 166.726562 C 188.578125 166.320312 188.375 166.320312 188.171875 166.113281 C 187.558594 165.910156 187.148438 165.910156 186.742188 165.707031 C 186.539062 165.707031 186.332031 165.707031 186.332031 165.910156 C 186.332031 166.113281 186.332031 167.339844 186.332031 167.339844 C 186.332031 167.339844 186.332031 170.402344 186.332031 171.011719 C 186.332031 171.421875 186.128906 171.625 185.925781 171.625 C 182.863281 172.644531 179.804688 173.871094 180.007812 176.929688 C 180.210938 179.175781 182.660156 180.605469 186.742188 181.625 C 189.804688 182.441406 193.882812 185.503906 189.804688 191.625 C 189.394531 192.238281 190.210938 191.625 191.230469 190.195312 C 193.273438 187.542969 194.90625 182.03125 188.78125 179.992188 Z M 186.539062 179.378906 C 184.292969 178.769531 182.863281 177.746094 182.660156 176.726562 C 182.660156 175.910156 183.066406 174.890625 186.332031 173.871094 C 186.742188 173.664062 186.742188 173.871094 186.742188 174.074219 L 186.742188 176.320312 C 186.742188 176.320312 186.742188 178.5625 186.742188 178.972656 C 186.945312 179.378906 186.539062 179.378906 186.539062 179.378906 Z M 189.191406 163.054688 C 192.046875 163.871094 195.722656 165.296875 196.128906 167.542969 C 196.128906 167.746094 196.128906 167.746094 196.128906 167.953125 C 196.128906 170.402344 193.066406 171.828125 190.210938 172.847656 C 190.210938 172.847656 190.007812 172.847656 190.007812 172.644531 C 190.007812 172.238281 190.007812 171.421875 190.007812 171.21875 C 190.007812 170.808594 190.210938 170.808594 190.414062 170.808594 C 192.660156 169.992188 194.089844 169.175781 194.089844 168.15625 C 194.089844 166.523438 186.332031 164.890625 185.925781 164.6875 C 181.84375 163.460938 176.539062 162.644531 176.332031 159.585938 C 175.925781 155.910156 183.476562 153.664062 186.128906 152.847656 C 186.332031 152.847656 186.332031 152.644531 186.332031 152.441406 L 186.332031 146.523438 C 186.332031 146.320312 186.539062 146.113281 186.742188 146.320312 C 187.558594 146.523438 188.171875 146.523438 188.988281 146.726562 C 189.191406 146.726562 189.394531 146.929688 189.394531 147.136719 C 189.394531 147.339844 189.394531 148.769531 189.394531 148.769531 L 188.988281 158.15625 L 188.988281 162.644531 C 188.78125 162.847656 188.988281 162.847656 189.191406 163.054688 Z M 186.128906 162.238281 C 186.128906 162.238281 186.332031 162.238281 186.332031 162.03125 C 186.332031 160.808594 186.128906 155.503906 186.128906 155.296875 C 186.128906 155.09375 185.925781 155.09375 185.925781 155.09375 C 182.046875 156.320312 178.375 157.746094 178.375 158.972656 C 178.578125 160.402344 182.863281 161.21875 186.128906 162.238281 Z M 188.171875 183.054688 C 188.171875 183.054688 188.375 183.257812 188.375 183.460938 C 188.375 183.664062 187.964844 200.195312 187.964844 200.195312 C 187.964844 200.402344 187.761719 200.605469 187.558594 200.605469 C 187.355469 200.605469 187.148438 200.402344 187.148438 200.195312 C 187.148438 200.195312 186.742188 183.257812 186.742188 183.054688 C 186.742188 182.847656 186.945312 182.847656 186.945312 182.847656 C 187.558594 182.847656 187.761719 183.054688 188.171875 183.054688 Z M 178.578125 129.789062 C 178.988281 129.789062 179.191406 129.992188 179.191406 130.402344 C 179.191406 130.808594 178.988281 131.011719 178.578125 131.011719 C 178.171875 131.011719 177.964844 130.808594 177.964844 130.402344 C 177.964844 130.195312 178.171875 129.789062 178.578125 129.789062 Z M 178.578125 129.789062 "/></g><path style=" stroke:none;fill-rule:nonzero;fill:#0f175f;fill-opacity:1;" d="M 200.488281 99.101562 C 200.015625 98.761719 199.53125 98.445312 199.042969 98.148438 C 196.113281 96.378906 193.839844 93.871094 192.171875 91.039062 C 190.859375 88.804688 189.335938 87.527344 187.714844 87.527344 C 185.96875 87.527344 184.34375 89.011719 182.960938 91.574219 C 181.5 94.285156 179.183594 96.230469 176.609375 97.835938 C 172.761719 100.246094 169.035156 104.140625 167.824219 108.625 C 165.921875 115.671875 172.519531 120.191406 178.921875 119.753906 C 181.753906 119.570312 184.773438 118.632812 187.570312 116.964844 C 190.457031 118.699219 193.59375 119.636719 196.507812 119.769531 C 200.957031 119.976562 206.074219 117.570312 207.394531 113.035156 C 208.964844 107.644531 204.597656 102.0625 200.488281 99.101562 "/><g clip-rule="nonzero" clip-path="url(#c1a4166f6e)"><path style=" stroke:none;fill-rule:nonzero;fill:#0f175f;fill-opacity:1;" d="M 173.484375 91.703125 C 173.484375 95.433594 171.046875 98.457031 168.039062 98.457031 C 165.03125 98.457031 162.59375 95.433594 162.59375 91.703125 C 162.59375 87.972656 163.542969 83.277344 166.550781 83.277344 C 169.558594 83.277344 173.484375 87.972656 173.484375 91.703125 "/></g><path style=" stroke:none;fill-rule:nonzero;fill:#0f175f;fill-opacity:1;" d="M 165.105469 85.390625 C 163.941406 81.828125 165.027344 78.171875 165.636719 77.945312 C 166.246094 77.714844 166.328125 83.046875 168.039062 84.949219 C 169.75 86.855469 165.105469 85.390625 165.105469 85.390625 "/><path style=" stroke:none;fill-rule:nonzero;fill:#0f175f;fill-opacity:1;" d="M 185.25 81.445312 C 185.25 85.171875 182.8125 88.199219 179.804688 88.199219 C 176.800781 88.199219 174.363281 85.171875 174.363281 81.445312 C 174.363281 77.714844 175.3125 73.015625 178.320312 73.015625 C 181.324219 73.015625 185.25 77.714844 185.25 81.445312 "/><g clip-rule="nonzero" clip-path="url(#dd392edc9b)"><path style=" stroke:none;fill-rule:nonzero;fill:#0f175f;fill-opacity:1;" d="M 176.871094 75.128906 C 175.710938 71.566406 176.796875 67.910156 177.402344 67.683594 C 178.015625 67.453125 178.09375 72.785156 179.804688 74.691406 C 181.515625 76.59375 176.871094 75.128906 176.871094 75.128906 "/></g><g clip-rule="nonzero" clip-path="url(#e9d28626a9)"><path style=" stroke:none;fill-rule:nonzero;fill:#0f175f;fill-opacity:1;" d="M 201.199219 91.703125 C 201.199219 95.433594 203.636719 98.457031 206.644531 98.457031 C 209.652344 98.457031 212.089844 95.433594 212.089844 91.703125 C 212.089844 87.972656 211.136719 83.277344 208.132812 83.277344 C 205.125 83.277344 201.199219 87.972656 201.199219 91.703125 "/></g><path style=" stroke:none;fill-rule:nonzero;fill:#0f175f;fill-opacity:1;" d="M 209.578125 85.390625 C 210.742188 81.828125 209.65625 78.171875 209.046875 77.945312 C 208.4375 77.714844 208.355469 83.046875 206.644531 84.949219 C 204.933594 86.855469 209.578125 85.390625 209.578125 85.390625 "/><path style=" stroke:none;fill-rule:nonzero;fill:#0f175f;fill-opacity:1;" d="M 189.433594 81.445312 C 189.433594 85.171875 191.871094 88.199219 194.875 88.199219 C 197.882812 88.199219 200.320312 85.171875 200.320312 81.445312 C 200.320312 77.714844 199.371094 73.015625 196.363281 73.015625 C 193.359375 73.015625 189.433594 77.714844 189.433594 81.445312 "/><g clip-rule="nonzero" clip-path="url(#22b95465ab)"><path style=" stroke:none;fill-rule:nonzero;fill:#0f175f;fill-opacity:1;" d="M 197.8125 75.128906 C 198.972656 71.566406 197.886719 67.910156 197.277344 67.683594 C 196.667969 67.453125 196.585938 72.785156 194.875 74.691406 C 193.164062 76.59375 197.8125 75.128906 197.8125 75.128906 "/></g><g clip-rule="nonzero" clip-path="url(#6bd9ca1a43)"><path style=" stroke:none;fill-rule:nonzero;fill:#0f175f;fill-opacity:1;" d="M 245.496094 142.753906 C 245.496094 174.519531 219.832031 200.46875 187.78125 200.46875 C 156.160156 200.328125 130.210938 174.804688 130.210938 142.753906 C 130.210938 134.816406 131.769531 127.722656 134.324219 120.632812 C 128.226562 130.703125 124.679688 142.046875 124.679688 154.523438 C 124.679688 189.410156 152.898438 217.34375 187.5 217.34375 C 222.382812 217.34375 250.316406 188.984375 250.316406 154.523438 C 250.316406 142.046875 246.632812 130.417969 240.675781 120.632812 C 244.078125 127.867188 245.496094 135.382812 245.496094 142.753906 Z M 245.496094 142.753906 "/></g><g style="fill:#0f175f;fill-opacity:1;"><g transform="translate(85.527253, 274.852887)"><path style="stroke:none" d="M 14.125 0.65625 C 12.289062 0.65625 10.6875 0.414062 9.3125 -0.0625 C 7.9375 -0.550781 6.765625 -1.273438 5.796875 -2.234375 C 4.691406 -3.328125 3.914062 -4.632812 3.46875 -6.15625 C 3.019531 -7.675781 2.796875 -9.554688 2.796875 -11.796875 L 2.796875 -31.359375 L 6.96875 -31.359375 L 6.96875 -11.796875 C 6.96875 -10.347656 7.054688 -9.128906 7.234375 -8.140625 C 7.421875 -7.148438 7.78125 -6.257812 8.3125 -5.46875 C 8.875 -4.632812 9.632812 -4 10.59375 -3.5625 C 11.5625 -3.125 12.738281 -2.90625 14.125 -2.90625 C 15.4375 -2.90625 16.597656 -3.125 17.609375 -3.5625 C 18.617188 -4 19.40625 -4.632812 19.96875 -5.46875 C 20.476562 -6.269531 20.828125 -7.15625 21.015625 -8.125 C 21.210938 -9.09375 21.3125 -10.28125 21.3125 -11.6875 L 21.3125 -31.359375 L 25.484375 -31.359375 L 25.484375 -11.796875 C 25.484375 -9.617188 25.257812 -7.75 24.8125 -6.1875 C 24.375 -4.632812 23.597656 -3.316406 22.484375 -2.234375 C 21.492188 -1.265625 20.332031 -0.539062 19 -0.0625 C 17.675781 0.414062 16.050781 0.65625 14.125 0.65625 Z M 14.125 0.65625 "/></g></g><g style="fill:#0f175f;fill-opacity:1;"><g transform="translate(113.809852, 274.852887)"><path style="stroke:none" d="M 21.359375 0 L 3.171875 0 L 3.171875 -31.359375 L 7.34375 -31.359375 L 7.34375 -3.703125 L 21.359375 -3.703125 Z M 21.359375 0 "/></g></g><g style="fill:#0f175f;fill-opacity:1;"><g transform="translate(135.269247, 274.852887)"><path style="stroke:none" d="M 10.5 0 L 10.5 -27.640625 L -0.015625 -27.640625 L -0.015625 -31.359375 L 25.203125 -31.359375 L 25.203125 -27.640625 L 14.671875 -27.640625 L 14.671875 0 Z M 10.5 0 "/></g></g><g style="fill:#0f175f;fill-opacity:1;"><g transform="translate(160.456132, 274.852887)"><path style="stroke:none" d="M 27.453125 0 L 22.046875 0 L 12.109375 -12.46875 L 7.34375 -12.46875 L 7.34375 0 L 3.171875 0 L 3.171875 -31.359375 L 11.265625 -31.359375 C 13.054688 -31.359375 14.5625 -31.257812 15.78125 -31.0625 C 17 -30.863281 18.15625 -30.40625 19.25 -29.6875 C 20.34375 -28.988281 21.207031 -28.082031 21.84375 -26.96875 C 22.488281 -25.863281 22.8125 -24.488281 22.8125 -22.84375 C 22.8125 -20.539062 22.226562 -18.617188 21.0625 -17.078125 C 19.894531 -15.535156 18.304688 -14.390625 16.296875 -13.640625 Z M 18.453125 -22.53125 C 18.453125 -23.445312 18.289062 -24.257812 17.96875 -24.96875 C 17.644531 -25.675781 17.144531 -26.253906 16.46875 -26.703125 C 15.875 -27.097656 15.179688 -27.375 14.390625 -27.53125 C 13.609375 -27.695312 12.632812 -27.78125 11.46875 -27.78125 L 7.34375 -27.78125 L 7.34375 -15.9375 L 11.015625 -15.9375 C 12.203125 -15.9375 13.273438 -16.039062 14.234375 -16.25 C 15.191406 -16.46875 16.003906 -16.90625 16.671875 -17.5625 C 17.273438 -18.15625 17.722656 -18.859375 18.015625 -19.671875 C 18.304688 -20.484375 18.453125 -21.4375 18.453125 -22.53125 Z M 18.453125 -22.53125 "/></g></g><g style="fill:#0f175f;fill-opacity:1;"><g transform="translate(187.222463, 274.852887)"><path style="stroke:none" d="M -0.203125 0 L 10.359375 -31.359375 L 15.5 -31.359375 L 26.0625 0 L 21.671875 0 L 18.828125 -8.765625 L 6.84375 -8.765625 L 4 0 Z M 17.671875 -12.3125 L 12.828125 -27.09375 L 8 -12.3125 Z M 17.671875 -12.3125 "/></g></g><g style="fill:#0f175f;fill-opacity:1;"><g transform="translate(213.095322, 274.852887)"><path style="stroke:none" d=""/></g></g><g style="fill:#0f175f;fill-opacity:1;"><g transform="translate(226.573254, 274.852887)"><path style="stroke:none" d=""/></g></g><g style="fill:#0f175f;fill-opacity:1;"><g transform="translate(240.055249, 274.852887)"><path style="stroke:none" d="M 3.171875 0 L 3.171875 -31.359375 L 22.78125 -31.359375 L 22.78125 -27.640625 L 7.34375 -27.640625 L 7.34375 -19.0625 L 21.734375 -19.0625 L 21.734375 -15.34375 L 7.34375 -15.34375 L 7.34375 -3.703125 L 22.78125 -3.703125 L 22.78125 0 Z M 3.171875 0 "/></g></g><g style="fill:#0f175f;fill-opacity:1;"><g transform="translate(264.25235, 274.852887)"><path style="stroke:none" d="M 10.5 0 L 10.5 -27.640625 L -0.015625 -27.640625 L -0.015625 -31.359375 L 25.203125 -31.359375 L 25.203125 -27.640625 L 14.671875 -27.640625 L 14.671875 0 Z M 10.5 0 "/></g></g><g style="fill:#ffffff;fill-opacity:1;"><g transform="translate(106.913668, 313.904829)"><path style="stroke:none" d="M 8.5625 0 L 7.1875 -3.5625 L 2.6875 -3.5625 L 1.3125 0 L 0 0 L 4.390625 -11.25 L 5.5625 -11.25 L 9.921875 0 Z M 6.796875 -4.71875 L 5.484375 -8.25 C 5.453125 -8.34375 5.398438 -8.492188 5.328125 -8.703125 C 5.265625 -8.910156 5.195312 -9.125 5.125 -9.34375 C 5.050781 -9.570312 4.992188 -9.757812 4.953125 -9.90625 C 4.898438 -9.6875 4.84375 -9.472656 4.78125 -9.265625 C 4.71875 -9.066406 4.660156 -8.878906 4.609375 -8.703125 C 4.554688 -8.523438 4.507812 -8.375 4.46875 -8.25 L 3.125 -4.71875 Z M 6.796875 -4.71875 "/></g></g><g style="fill:#ffffff;fill-opacity:1;"><g transform="translate(118.440291, 313.904829)"><path style="stroke:none" d="M 10.4375 -5.71875 C 10.4375 -4.445312 10.207031 -3.390625 9.75 -2.546875 C 9.289062 -1.703125 8.625 -1.066406 7.75 -0.640625 C 6.875 -0.210938 5.816406 0 4.578125 0 L 1.53125 0 L 1.53125 -11.203125 L 4.921875 -11.203125 C 6.054688 -11.203125 7.035156 -10.992188 7.859375 -10.578125 C 8.679688 -10.160156 9.316406 -9.546875 9.765625 -8.734375 C 10.210938 -7.921875 10.4375 -6.914062 10.4375 -5.71875 Z M 9.0625 -5.671875 C 9.0625 -6.671875 8.894531 -7.5 8.5625 -8.15625 C 8.226562 -8.8125 7.738281 -9.296875 7.09375 -9.609375 C 6.445312 -9.929688 5.65625 -10.09375 4.71875 -10.09375 L 2.84375 -10.09375 L 2.84375 -1.125 L 4.421875 -1.125 C 5.960938 -1.125 7.117188 -1.503906 7.890625 -2.265625 C 8.671875 -3.023438 9.0625 -4.160156 9.0625 -5.671875 Z M 9.0625 -5.671875 "/></g></g><g style="fill:#ffffff;fill-opacity:1;"><g transform="translate(131.430741, 313.904829)"><path style="stroke:none" d="M 10.4375 -5.71875 C 10.4375 -4.445312 10.207031 -3.390625 9.75 -2.546875 C 9.289062 -1.703125 8.625 -1.066406 7.75 -0.640625 C 6.875 -0.210938 5.816406 0 4.578125 0 L 1.53125 0 L 1.53125 -11.203125 L 4.921875 -11.203125 C 6.054688 -11.203125 7.035156 -10.992188 7.859375 -10.578125 C 8.679688 -10.160156 9.316406 -9.546875 9.765625 -8.734375 C 10.210938 -7.921875 10.4375 -6.914062 10.4375 -5.71875 Z M 9.0625 -5.671875 C 9.0625 -6.671875 8.894531 -7.5 8.5625 -8.15625 C 8.226562 -8.8125 7.738281 -9.296875 7.09375 -9.609375 C 6.445312 -9.929688 5.65625 -10.09375 4.71875 -10.09375 L 2.84375 -10.09375 L 2.84375 -1.125 L 4.421875 -1.125 C 5.960938 -1.125 7.117188 -1.503906 7.890625 -2.265625 C 8.671875 -3.023438 9.0625 -4.160156 9.0625 -5.671875 Z M 9.0625 -5.671875 "/></g></g><g style="fill:#ffffff;fill-opacity:1;"><g transform="translate(144.421192, 313.904829)"><path style="stroke:none" d=""/></g></g><g style="fill:#ffffff;fill-opacity:1;"><g transform="translate(150.100166, 313.904829)"><path style="stroke:none" d="M 10.03125 0 L 8.71875 0 L 8.71875 -5.28125 L 2.84375 -5.28125 L 2.84375 0 L 1.53125 0 L 1.53125 -11.203125 L 2.84375 -11.203125 L 2.84375 -6.4375 L 8.71875 -6.4375 L 8.71875 -11.203125 L 10.03125 -11.203125 Z M 10.03125 0 "/></g></g><g style="fill:#ffffff;fill-opacity:1;"><g transform="translate(163.274552, 313.904829)"><path style="stroke:none" d="M 11.25 -5.625 C 11.25 -4.757812 11.140625 -3.972656 10.921875 -3.265625 C 10.703125 -2.554688 10.375 -1.945312 9.9375 -1.4375 C 9.507812 -0.925781 8.976562 -0.53125 8.34375 -0.25 C 7.707031 0.0195312 6.96875 0.15625 6.125 0.15625 C 5.25 0.15625 4.488281 0.0195312 3.84375 -0.25 C 3.195312 -0.53125 2.660156 -0.925781 2.234375 -1.4375 C 1.804688 -1.945312 1.484375 -2.554688 1.265625 -3.265625 C 1.054688 -3.984375 0.953125 -4.773438 0.953125 -5.640625 C 0.953125 -6.785156 1.140625 -7.785156 1.515625 -8.640625 C 1.898438 -9.503906 2.476562 -10.175781 3.25 -10.65625 C 4.019531 -11.144531 4.984375 -11.390625 6.140625 -11.390625 C 7.253906 -11.390625 8.1875 -11.148438 8.9375 -10.671875 C 9.695312 -10.191406 10.269531 -9.519531 10.65625 -8.65625 C 11.050781 -7.800781 11.25 -6.789062 11.25 -5.625 Z M 2.328125 -5.625 C 2.328125 -4.664062 2.460938 -3.835938 2.734375 -3.140625 C 3.003906 -2.453125 3.421875 -1.914062 3.984375 -1.53125 C 4.546875 -1.15625 5.257812 -0.96875 6.125 -0.96875 C 6.988281 -0.96875 7.695312 -1.15625 8.25 -1.53125 C 8.8125 -1.914062 9.222656 -2.453125 9.484375 -3.140625 C 9.753906 -3.835938 9.890625 -4.664062 9.890625 -5.625 C 9.890625 -7.070312 9.582031 -8.203125 8.96875 -9.015625 C 8.363281 -9.828125 7.421875 -10.234375 6.140625 -10.234375 C 5.273438 -10.234375 4.5625 -10.046875 4 -9.671875 C 3.4375 -9.296875 3.015625 -8.765625 2.734375 -8.078125 C 2.460938 -7.390625 2.328125 -6.570312 2.328125 -5.625 Z M 2.328125 -5.625 "/></g></g><g style="fill:#ffffff;fill-opacity:1;"><g transform="translate(177.085054, 313.904829)"><path style="stroke:none" d="M 4.46875 -11.203125 C 5.90625 -11.203125 6.957031 -10.921875 7.625 -10.359375 C 8.300781 -9.796875 8.640625 -8.988281 8.640625 -7.9375 C 8.640625 -7.457031 8.5625 -7.003906 8.40625 -6.578125 C 8.25 -6.148438 7.992188 -5.773438 7.640625 -5.453125 C 7.296875 -5.128906 6.835938 -4.875 6.265625 -4.6875 C 5.703125 -4.5 5.015625 -4.40625 4.203125 -4.40625 L 2.84375 -4.40625 L 2.84375 0 L 1.53125 0 L 1.53125 -11.203125 Z M 4.34375 -10.09375 L 2.84375 -10.09375 L 2.84375 -5.53125 L 4.0625 -5.53125 C 4.769531 -5.53125 5.363281 -5.601562 5.84375 -5.75 C 6.320312 -5.90625 6.679688 -6.15625 6.921875 -6.5 C 7.160156 -6.851562 7.28125 -7.3125 7.28125 -7.875 C 7.28125 -8.625 7.039062 -9.179688 6.5625 -9.546875 C 6.09375 -9.910156 5.351562 -10.09375 4.34375 -10.09375 Z M 4.34375 -10.09375 "/></g></g><g style="fill:#ffffff;fill-opacity:1;"><g transform="translate(188.128842, 313.904829)"><path style="stroke:none" d="M 7.78125 0 L 1.53125 0 L 1.53125 -11.203125 L 7.78125 -11.203125 L 7.78125 -10.0625 L 2.84375 -10.0625 L 2.84375 -6.4375 L 7.484375 -6.4375 L 7.484375 -5.296875 L 2.84375 -5.296875 L 2.84375 -1.15625 L 7.78125 -1.15625 Z M 7.78125 0 "/></g></g><g style="fill:#ffffff;fill-opacity:1;"><g transform="translate(198.452213, 313.904829)"><path style="stroke:none" d=""/></g></g><g style="fill:#ffffff;fill-opacity:1;"><g transform="translate(204.131187, 313.904829)"><path style="stroke:none" d="M 4.96875 0 L 3.671875 0 L 3.671875 -10.0625 L 0.140625 -10.0625 L 0.140625 -11.203125 L 8.484375 -11.203125 L 8.484375 -10.0625 L 4.96875 -10.0625 Z M 4.96875 0 "/></g></g><g style="fill:#ffffff;fill-opacity:1;"><g transform="translate(214.377918, 313.904829)"><path style="stroke:none" d="M 11.25 -5.625 C 11.25 -4.757812 11.140625 -3.972656 10.921875 -3.265625 C 10.703125 -2.554688 10.375 -1.945312 9.9375 -1.4375 C 9.507812 -0.925781 8.976562 -0.53125 8.34375 -0.25 C 7.707031 0.0195312 6.96875 0.15625 6.125 0.15625 C 5.25 0.15625 4.488281 0.0195312 3.84375 -0.25 C 3.195312 -0.53125 2.660156 -0.925781 2.234375 -1.4375 C 1.804688 -1.945312 1.484375 -2.554688 1.265625 -3.265625 C 1.054688 -3.984375 0.953125 -4.773438 0.953125 -5.640625 C 0.953125 -6.785156 1.140625 -7.785156 1.515625 -8.640625 C 1.898438 -9.503906 2.476562 -10.175781 3.25 -10.65625 C 4.019531 -11.144531 4.984375 -11.390625 6.140625 -11.390625 C 7.253906 -11.390625 8.1875 -11.148438 8.9375 -10.671875 C 9.695312 -10.191406 10.269531 -9.519531 10.65625 -8.65625 C 11.050781 -7.800781 11.25 -6.789062 11.25 -5.625 Z M 2.328125 -5.625 C 2.328125 -4.664062 2.460938 -3.835938 2.734375 -3.140625 C 3.003906 -2.453125 3.421875 -1.914062 3.984375 -1.53125 C 4.546875 -1.15625 5.257812 -0.96875 6.125 -0.96875 C 6.988281 -0.96875 7.695312 -1.15625 8.25 -1.53125 C 8.8125 -1.914062 9.222656 -2.453125 9.484375 -3.140625 C 9.753906 -3.835938 9.890625 -4.664062 9.890625 -5.625 C 9.890625 -7.070312 9.582031 -8.203125 8.96875 -9.015625 C 8.363281 -9.828125 7.421875 -10.234375 6.140625 -10.234375 C 5.273438 -10.234375 4.5625 -10.046875 4 -9.671875 C 3.4375 -9.296875 3.015625 -8.765625 2.734375 -8.078125 C 2.460938 -7.390625 2.328125 -6.570312 2.328125 -5.625 Z M 2.328125 -5.625 "/></g></g><g style="fill:#ffffff;fill-opacity:1;"><g transform="translate(228.188419, 313.904829)"><path style="stroke:none" d=""/></g></g><g style="fill:#ffffff;fill-opacity:1;"><g transform="translate(233.867393, 313.904829)"><path style="stroke:none" d="M 1.53125 0 L 1.53125 -11.203125 L 2.84375 -11.203125 L 2.84375 -1.171875 L 7.8125 -1.171875 L 7.8125 0 Z M 1.53125 0 "/></g></g><g style="fill:#ffffff;fill-opacity:1;"><g transform="translate(243.661946, 313.904829)"><path style="stroke:none" d="M 1.53125 0 L 1.53125 -11.203125 L 2.84375 -11.203125 L 2.84375 0 Z M 1.53125 0 "/></g></g><g style="fill:#ffffff;fill-opacity:1;"><g transform="translate(249.647481, 313.904829)"><path style="stroke:none" d="M 2.84375 0 L 1.53125 0 L 1.53125 -11.203125 L 7.78125 -11.203125 L 7.78125 -10.0625 L 2.84375 -10.0625 L 2.84375 -5.953125 L 7.46875 -5.953125 L 7.46875 -4.8125 L 2.84375 -4.8125 Z M 2.84375 0 "/></g></g><g style="fill:#ffffff;fill-opacity:1;"><g transform="translate(259.350066, 313.904829)"><path style="stroke:none" d="M 7.78125 0 L 1.53125 0 L 1.53125 -11.203125 L 7.78125 -11.203125 L 7.78125 -10.0625 L 2.84375 -10.0625 L 2.84375 -6.4375 L 7.484375 -6.4375 L 7.484375 -5.296875 L 2.84375 -5.296875 L 2.84375 -1.15625 L 7.78125 -1.15625 Z M 7.78125 0 "/></g></g><g style="fill:#5ce1e6;fill-opacity:1;"><g transform="translate(216.555384, 274.923113)"><path style="stroke:none" d="M 25.90625 -31.359375 L 15.125 0 L 10.609375 0 L -0.171875 -31.359375 L 4.296875 -31.359375 L 12.96875 -5.328125 L 21.640625 -31.359375 Z M 25.90625 -31.359375 "/></g></g></g></svg>